<svg id="SvgjsSvg1101" width="360" height="275" xmlns="http://www.w3.org/2000/svg" version="1.1" xmlns:xlink="http://www.w3.org/1999/xlink" xmlns:svgjs="http://svgjs.com/svgjs"><defs id="SvgjsDefs1102"><svg width="91px" height="91px" xmlns="http://www.w3.org/2000/svg" xmlns:xlink="http://www.w3.org/1999/xlink" version="1.1" x="0px" y="0px" viewBox="0 0 100 100" enable-background="new 0 0 100 100" id="a1494876534739"><path d="M78.695,51.196c-4.129-2.188-9.784-4.614-15.928-6.836c-9.56-3.457-18.298-5.69-22.257-5.69  c-0.886,0-2.096,0.093-2.385,0.889c-0.002,0-0.002,0.001-0.002,0.001l-1.983,5.486c-0.045,0.124-0.027,0.255,0.038,0.36  c0.085,0.396,0.418,0.921,1.28,1.643c0.038,0.12,0.128,0.225,0.259,0.27c0.034,0.013,0.07,0.019,0.106,0.022  c0.207,0.16,0.437,0.327,0.694,0.504c-0.594-0.006-1.192-0.01-1.786-0.01c-6.533,0-12.677,0.36-17.302,1.013  c-2.052,0.29-7.506,1.06-7.506,2.852v5.833c0,0.132,0.063,0.248,0.157,0.327c0.446,0.707,2.054,1.567,7.349,2.314  c4.625,0.653,10.769,1.013,17.302,1.013c0.977,0,1.961-0.008,2.946-0.025c0.064,0.037,0.137,0.061,0.216,0.061  c0.087,0,0.165-0.027,0.232-0.069c0.661-0.015,1.319-0.032,1.976-0.053c0.036,0.01,0.072,0.018,0.11,0.018  c0.049,0,0.094-0.011,0.139-0.024c0.713-0.026,1.421-0.055,2.124-0.087c0.018,0.003,0.037,0.006,0.058,0.006  c0.035,0,0.068-0.006,0.101-0.013c0.642-0.032,1.278-0.067,1.907-0.106c0.031,0.008,0.065,0.013,0.1,0.013  c0.054,0,0.104-0.01,0.152-0.029c0.596-0.039,1.185-0.08,1.763-0.125c0.058,0.03,0.123,0.048,0.193,0.048  c0.093,0,0.18-0.032,0.25-0.083c0.611-0.05,1.21-0.104,1.796-0.161c0.051,0.021,0.107,0.034,0.167,0.034  c0.09,0,0.173-0.028,0.24-0.075c1.542-0.16,2.975-0.346,4.254-0.56c0.013,0,0.026,0.002,0.039,0.002c0.064,0,0.125-0.015,0.18-0.041  c0.638-0.11,1.238-0.228,1.791-0.352c0.069,0.049,0.151,0.077,0.243,0.077c0.16,0,0.299-0.091,0.369-0.223  c1.62-0.408,2.75-0.886,3.202-1.43c4.488,1.528,8.738,2.767,12.31,3.582c0.001,0.002,0.003,0.003,0.003,0.003  c0.034,0.012,0.065,0.018,0.099,0.022c0.392,0.089,0.777,0.174,1.152,0.253c2.664,0.559,4.439,0.765,5.628,0.765  c1.106,0,1.702-0.179,2.035-0.417c0.145-0.026,0.272-0.121,0.325-0.269l1.983-5.485c0.026-0.071,0.031-0.145,0.018-0.215  C84.942,55.46,84.178,54.101,78.695,51.196z M37.695,46.127c-0.596-0.549-0.734-0.871-0.689-0.993c0,0,0,0,0-0.001l1.521-4.204  c0.182,0.224,0.427,0.475,0.754,0.754L37.695,46.127z M38.386,46.701l1.591-4.464c0.356,0.262,0.773,0.546,1.262,0.856l-1.599,4.479  C39.136,47.248,38.723,46.958,38.386,46.701z M47.952,51.882c-0.46-0.206-0.907-0.41-1.347-0.615l1.604-4.5  c0.441,0.205,0.89,0.411,1.349,0.615L47.952,51.882z M50.331,47.727c0.445,0.196,0.898,0.392,1.356,0.587l-1.605,4.5  c-0.458-0.196-0.912-0.391-1.356-0.586L50.331,47.727z M45.837,50.908c-0.457-0.219-0.902-0.434-1.336-0.649l1.606-4.498  c0.433,0.215,0.877,0.43,1.336,0.648L45.837,50.908z M43.743,49.879c-0.357-0.183-0.709-0.363-1.047-0.543  c-0.093-0.048-0.183-0.097-0.274-0.146l1.604-4.497c0.063,0.034,0.123,0.067,0.187,0.102c0.365,0.193,0.746,0.389,1.135,0.585  L43.743,49.879z M41.672,48.781c-0.479-0.266-0.911-0.516-1.299-0.751l1.601-4.486c0.395,0.235,0.828,0.482,1.302,0.744  L41.672,48.781z M13.963,58.105c-0.912-0.35-1.196-0.642-1.196-0.783v-4.474c0.311,0.186,0.709,0.363,1.196,0.534V58.105z   M16.282,58.766c-0.577-0.127-1.064-0.255-1.476-0.375v-4.743c0.443,0.124,0.935,0.245,1.476,0.36V58.766z M18.601,59.198  c-0.539-0.085-1.028-0.171-1.476-0.258v-4.762c0.463,0.087,0.955,0.171,1.476,0.252V59.198z M20.92,59.519  c-0.471-0.057-0.931-0.116-1.372-0.179c-0.036-0.005-0.07-0.01-0.105-0.016v-4.769c0.475,0.067,0.97,0.13,1.477,0.192V59.519z   M23.239,59.769c-0.504-0.048-0.995-0.099-1.477-0.153v-4.774c0.481,0.053,0.972,0.104,1.477,0.152V59.769z M25.558,59.961  c-0.5-0.037-0.993-0.076-1.476-0.117v-4.775c0.482,0.042,0.976,0.079,1.476,0.116V59.961z M27.877,60.11  c-0.499-0.028-0.992-0.057-1.476-0.089v-4.778c0.484,0.032,0.978,0.062,1.476,0.089V60.11z M30.196,60.219  c-0.497-0.02-0.989-0.042-1.476-0.064v-4.778c0.487,0.023,0.979,0.044,1.476,0.064V60.219z M32.515,60.293  c-0.496-0.013-0.988-0.027-1.476-0.042v-4.78c0.489,0.017,0.98,0.031,1.476,0.042V60.293z M34.833,60.333  c-0.494-0.005-0.987-0.013-1.476-0.021v-4.78c0.489,0.01,0.981,0.018,1.476,0.022V60.333z M37.153,60.343  c-0.14,0.001-0.28,0.001-0.421,0.001c-0.353,0-0.703-0.001-1.054-0.004v-4.778c0.351,0.001,0.701,0.002,1.054,0.002  c0.14,0,0.281,0,0.421-0.001V60.343z M39.472,60.323c-0.486,0.007-0.978,0.013-1.477,0.018v-4.78  c0.495-0.004,0.988-0.01,1.477-0.017V60.323z M41.791,60.27c-0.484,0.014-0.976,0.027-1.476,0.037v-4.776c0-0.002,0-0.002,0-0.003  c0.496-0.01,0.989-0.023,1.476-0.038V60.27z M44.11,60.184c-0.483,0.022-0.975,0.042-1.475,0.059v-4.781  c0.496-0.017,0.989-0.036,1.475-0.057V60.184z M46.219,60.073c-0.415,0.025-0.836,0.049-1.265,0.072v-4.781  c0.426-0.022,0.848-0.044,1.265-0.069V60.073z M48.327,59.929c-0.413,0.033-0.834,0.062-1.265,0.091v-4.778  c0.427-0.029,0.85-0.059,1.265-0.09V59.929z M50.541,59.735c-0.445,0.043-0.902,0.086-1.371,0.126v-4.752  c0-0.009-0.003-0.016-0.003-0.024c0.468-0.039,0.924-0.08,1.374-0.123V59.735z M50.793,54.09c-4.089,0.409-9.005,0.632-14.062,0.632  c-6.494,0-12.597-0.357-17.183-1.004c-1.009-0.142-1.874-0.29-2.615-0.438c-0.065-0.042-0.146-0.068-0.229-0.068  c-0.026,0-0.049,0.003-0.073,0.007c-3.093-0.646-3.864-1.285-3.864-1.519c0-0.294,1.219-1.232,6.782-2.018  c4.586-0.647,10.689-1.005,17.183-1.005c0.947,0,1.903,0.009,2.84,0.025c0.073,0.002,0.14-0.016,0.2-0.047  c0.704,0.428,1.539,0.903,2.529,1.427c2.406,1.274,5.334,2.632,8.575,3.98C50.847,54.07,50.819,54.079,50.793,54.09z M50.86,53.145  l1.606-4.501c0.447,0.188,0.906,0.375,1.366,0.563l-1.606,4.502C51.766,53.52,51.309,53.333,50.86,53.145z M52.754,55.003v4.486  c-0.442,0.056-0.897,0.109-1.371,0.159v-4.772c0.393-0.042,0.78-0.084,1.156-0.129c0.081,0.033,0.164,0.065,0.246,0.098  C52.766,54.893,52.754,54.947,52.754,55.003z M54.613,49.525c0.453,0.181,0.912,0.361,1.374,0.543l-1.606,4.5  c-0.461-0.18-0.92-0.361-1.374-0.543L54.613,49.525z M55.073,59.162c-0.466,0.075-0.958,0.148-1.476,0.22v-4.213  c0.488,0.193,0.979,0.383,1.476,0.574V59.162z M55.166,54.875l1.606-4.501c0.456,0.176,0.918,0.35,1.381,0.523l-1.606,4.502  C56.083,55.225,55.622,55.05,55.166,54.875z M57.287,56.583v2.161c-0.421,0.093-0.878,0.184-1.37,0.274v-2.954  c0.454,0.171,0.911,0.341,1.372,0.509C57.288,56.578,57.287,56.581,57.287,56.583z M57.337,55.693l1.606-4.5  c0.397,0.146,0.795,0.291,1.197,0.437c0.063,0.023,0.126,0.046,0.19,0.068l-1.605,4.501c-0.07-0.025-0.14-0.05-0.208-0.074  C58.119,55.982,57.729,55.837,57.337,55.693z M58.131,58.542v-1.661c0.033,0.012,0.064,0.023,0.097,0.037  c0.722,0.259,1.439,0.514,2.152,0.761C59.967,57.971,59.204,58.264,58.131,58.542z M60.91,56.971  c-0.462-0.16-0.926-0.323-1.394-0.488l1.606-4.501c0.467,0.167,0.932,0.328,1.393,0.488L60.91,56.971z M61.709,57.244l1.604-4.501  c0.47,0.16,0.938,0.316,1.4,0.469l-1.605,4.501C62.645,57.56,62.177,57.402,61.709,57.244z M63.911,57.974l1.604-4.499  c0.473,0.152,0.943,0.303,1.407,0.448l-1.606,4.5C64.853,58.276,64.382,58.127,63.911,57.974z M66.123,58.673l1.606-4.5  c0.409,0.126,0.813,0.249,1.212,0.368l-1.604,4.498C66.936,58.92,66.531,58.797,66.123,58.673z M68.146,59.275l1.604-4.496  c0.413,0.12,0.819,0.235,1.22,0.348l-1.604,4.495C68.965,59.512,68.557,59.394,68.146,59.275z M70.182,59.847l1.602-4.495  c0.418,0.114,0.826,0.221,1.228,0.326l-1.604,4.493C71.006,60.068,70.595,59.958,70.182,59.847z M73.467,60.678  c-0.404-0.095-0.817-0.193-1.237-0.298l1.604-4.492c0.419,0.106,0.833,0.206,1.234,0.3L73.467,60.678z M75.017,61.022  c-0.236-0.05-0.479-0.102-0.723-0.156l1.602-4.488c0.43,0.095,0.845,0.183,1.247,0.266l-1.6,4.487  C75.372,61.096,75.196,61.059,75.017,61.022z M77.652,61.503c-0.389-0.059-0.813-0.128-1.271-0.213l1.599-4.483  c0.44,0.081,0.863,0.154,1.266,0.217l-1.582,4.436C77.658,61.473,77.657,61.489,77.652,61.503z M79.803,61.74  c-0.377-0.021-0.807-0.06-1.3-0.12l1.595-4.475c0.465,0.06,0.896,0.104,1.297,0.134L79.803,61.74z M82.168,61.283  c-0.038,0.042-0.07,0.09-0.09,0.147c-0.049,0.133-0.412,0.31-1.388,0.331l1.585-4.443c0.04,0,0.083,0.002,0.122,0.002  c0.387,0,0.836-0.018,1.241-0.103L82.168,61.283z M83.99,56.142c-0.002,0.004-0.139,0.334-1.593,0.334  c-0.641,0-1.426-0.065-2.328-0.187c-0.029-0.02-0.061-0.039-0.095-0.05c-0.093-0.033-0.187-0.031-0.274-0.003  c-4.499-0.664-11.722-2.669-19.274-5.399c-6.106-2.208-11.725-4.618-15.819-6.787c-4.962-2.63-5.79-3.924-5.689-4.203  c0.001-0.004,0.14-0.334,1.593-0.334c3.811,0,12.64,2.266,21.97,5.639c6.108,2.208,11.727,4.618,15.819,6.787  C83.263,54.57,84.09,55.865,83.99,56.142z"></path></svg><!--?xml version="1.0"?-->
<svg width="660.1505882353px" height="312.94117647059px" id="t1494876534739"><path fill="#008489" d="M26.776470588235,115.53882352941q0.22588235294118-4.7435294117648,1.2988235294118-9.4870588235296t2.5411764705883-9.374117647059q3.3882352941177-11.858823529412,8.3576470588237-23.04q1.5811764705883-3.9529411764706,3.3317647058824-7.9623529411766t3.6705882352942-7.9623529411766q-3.3882352941177,2.8235294117647-6.889411764706,5.4776470588236t-6.4376470588236,5.8164705882354q-2.3717647058824,2.5976470588236-4.1223529411765,5.7600000000001t-1.0729411764706,6.889411764706q0.22588235294118,1.3552941176471-0.50823529411765,1.7505882352941t-1.8070588235294,0.16941176470588t-2.1458823529412-0.84705882352942t-1.6376470588236-1.1858823529412q-1.2423529411765-1.3552941176471-1.2988235294118-3.1623529411765t0.56470588235295-3.6705882352942t1.6941176470588-3.5011764705883t2.0894117647059-2.7670588235295q2.9364705882353-3.0494117647059,6.4941176470589-5.1388235294118t7.1717647058825-4.2352941176471q2.5976470588236-1.5811764705883,5.4776470588236-3.2752941176471t5.364705882353-3.7270588235295q0.67764705882354-1.3552941176471,1.2988235294118-2.6541176470589t1.7505882352941-2.2023529411765q1.3552941176471-1.3552941176471,3.7270588235295-1.92t3.9529411764706,0.11294117647059q0.67764705882354,0.33882352941177,0.50823529411765,1.1294117647059t-0.62117647058824,1.6941176470588t-1.0729411764706,1.6941176470588t-0.73411764705883,1.0164705882353q-1.4682352941177,2.5976470588236-2.7670588235295,5.0823529411765t-2.5411764705883,5.0823529411765q-2.7105882352942,5.4211764705883-5.2517647058824,10.842352941177t-5.1388235294118,10.955294117647l-1.4682352941177,3.2752941176471q5.6470588235295-5.1952941176471,11.350588235294-10.108235294118t11.350588235294-10.108235294118q3.6141176470589-3.2752941176471,7.1717647058825-6.7200000000001t6.7200000000001-7.3976470588236q1.6941176470588-2.0329411764706,2.5976470588236-4.0658823529412q0.33882352941177-0.56470588235295,0.50823529411765-1.4682352941177t0.62117647058824-1.3552941176471q0.56470588235295-0.56470588235295,1.1294117647059-0.33882352941177t1.0729411764706,0.84705882352942t0.84705882352942,1.2988235294118t0.56470588235295,1.0164705882353q0.79058823529413,2.484705882353,0.16941176470588,4.6870588235295t-2.0329411764706,4.1788235294118t-3.2188235294118,3.7270588235295t-3.5011764705883,3.2188235294118q-3.6141176470589,3.2752941176471-7.6800000000001,6.1552941176472t-8.2447058823531,5.5905882352942l-7.3411764705883,4.969411764706q2.7105882352942,0.33882352941177,3.7835294117648,1.4117647058824t1.2988235294118,3.6705882352942q0.22588235294118,2.0329411764706,0.45176470588236,4.969411764706t0.45176470588236,6.2117647058824t0.62117647058824,6.6070588235295t0.96000000000001,6.2682352941177q0,0.33882352941177,0.28235294117647,1.2423529411765t0.62117647058824,1.8635294117647t0.84705882352942,1.6376470588236t1.0729411764706,0.67764705882354q1.4682352941177,0,2.8235294117647-1.2423529411765t2.5411764705883-2.9929411764706t2.0894117647059-3.5576470588236l1.4682352941177-2.9364705882353q2.0329411764706-3.6141176470589,3.8400000000001-7.3411764705883t3.9529411764706-7.3411764705883l0.56470588235295-0.84705882352942t0.79058823529413-0.79058823529413t0.90352941176472-0.16941176470588t0.79058823529413,0.79058823529413q0.33882352941177,0.56470588235295,0.11294117647059,1.2988235294118t-0.67764705882354,1.524705882353t-0.90352941176472,1.4682352941177t-0.67764705882354,1.1294117647059q-2.2588235294118,3.9529411764706-4.404705882353,8.0752941176472t-4.5176470588236,8.0752941176472q-0.67764705882354,1.0164705882353-1.5811764705883,2.4282352941177t-1.9764705882353,2.5976470588236t-2.4282352941177,1.9764705882353t-2.8235294117647,0.79058823529413q-2.0329411764706,0-3.444705882353-1.524705882353t-2.4282352941177-3.6705882352942t-1.6941176470588-4.404705882353t-1.0164705882353-3.7270588235295q-1.4682352941177-6.0988235294119-2.6541176470589-12.141176470588t-1.9764705882353-9.8823529411766q-1.5811764705883,1.1294117647059-2.9364705882353,2.2023529411765t-2.8235294117647,2.2023529411765q-1.6941176470588,1.2423529411765-3.1623529411765,2.6541176470589t-2.8235294117647,2.9929411764706q-1.4682352941177,3.2752941176471-2.5976470588236,6.324705882353l-2.2588235294118,6.0988235294119q-0.90352941176472,2.2588235294118-1.7505882352941,4.6305882352942t-1.4117647058824,4.7435294117648q-0.11294117647059,0.79058823529413-0.22588235294118,1.7505882352941t-1.0164705882353,1.1858823529412q-0.79058823529413,0.33882352941177-1.3552941176471-0.22588235294118t-0.56470588235295-1.4682352941177z M105.94823529412,98.597647058825q-1.4682352941177,2.484705882353-3.8964705882354,5.6470588235295t-5.4776470588236,5.7035294117648t-6.4941176470589,3.7270588235295t-6.9458823529413-0.28235294117647q-2.0329411764706-0.90352941176472-3.1623529411765-2.7670588235295t-1.5811764705883-4.1788235294118t-0.45176470588236-4.7435294117648t0.11294117647059-4.3482352941177q0.67764705882354-6.6635294117648,3.6141176470589-12.875294117647q1.6941176470588-4.0658823529412,4.404705882353-7.7364705882354t6.324705882353-6.0423529411766q1.4682352941177-1.0164705882353,3.5011764705883-1.524705882353t4.1223529411765-0.50823529411765t4.0658823529412,0.56470588235295t3.3317647058824,1.6941176470588q1.3552941176471,1.2423529411765,2.2023529411765,2.9364705882353t1.2423529411765,3.6141176470589t0.45176470588236,3.8400000000001t-0.16941176470588,3.6141176470589q-0.22588235294118,2.9364705882353-1.1858823529412,5.4211764705883t-2.3152941176471,4.969411764706q3.1623529411765-0.56470588235295,5.7600000000001-2.4282352941177t4.2917647058824-4.4611764705883q0.79058823529413-1.3552941176471,2.0329411764706-0.56470588235295q0.45176470588236,0.33882352941177,0.62117647058824,0.90352941176472t-0.16941176470588,1.1294117647059q-2.2588235294118,3.7270588235295-6.0423529411766,6.0988235294119t-8.1882352941178,2.5976470588236z M94.315294117649,91.256470588237q-1.1294117647059-3.8400000000001-0.39529411764706-7.3976470588236t1.7505882352941-6.0423529411766l-1.92,2.2588235294118q-3.2752941176471,4.1788235294118-5.8164705882354,9.0917647058825t-4.2352941176471,9.9952941176472q-0.56470588235295,2.2588235294118-1.0729411764706,4.8000000000001t0.056470588235295,4.9129411764707q0.33882352941177,1.3552941176471,1.1858823529412,1.92t1.8635294117647,0.56470588235295t2.0894117647059-0.33882352941177t1.9764705882353-0.90352941176472q3.2752941176471-2.2588235294118,5.7035294117648-5.5905882352942t4.3482352941177-6.8329411764707q-4.1788235294118-1.92-5.5341176470589-6.4376470588236z M103.12470588236,72.621176470589q-1.2423529411765,0.22588235294118-2.3717647058824,1.8635294117647t-1.92,3.3317647058824q-1.5811764705883,3.2752941176471-2.0329411764706,6.6070588235295t0.33882352941177,6.0423529411766q0.56470588235295,1.92,1.6376470588236,2.9364705882353t2.4282352941177,1.5811764705883q1.3552941176471-2.8235294117647,2.484705882353-5.7600000000001t2.0329411764706-6.0988235294119q0.33882352941177-1.0164705882353,0.62117647058824-2.3717647058824t0.33882352941177-2.7670588235295t-0.16941176470588-2.7105882352942t-1.0164705882353-1.9764705882353q-0.45176470588236-0.45176470588236-1.1294117647059-0.67764705882354t-1.2423529411765,0z M132.94117647059,71.491764705883q-0.45176470588236,1.0164705882353-2.0329411764706,4.2917647058824t-3.5011764705883,7.5670588235295t-4.0094117647059,9.0917647058825t-3.5576470588236,8.8658823529413t-2.0894117647059,6.8329411764707t0.39529411764706,2.9929411764706q1.1294117647059,0.33882352941177,2.5411764705883-0.33882352941177t2.7670588235295-1.8070588235294t2.484705882353-2.3717647058824t1.8070588235294-1.92q2.2588235294118-2.2588235294118,4.2352941176471-4.7435294117648t3.7835294117648-5.0823529411765q0.79058823529413-1.1294117647059,1.524705882353-2.2023529411765t1.4117647058824-2.2023529411765q0.33882352941177-0.56470588235295,0.73411764705883-1.4117647058824t0.96000000000001-1.1858823529412q1.0164705882353-0.56470588235295,1.8070588235294,0.22588235294118t0.22588235294118,1.8070588235294q-0.22588235294118,0.67764705882354-0.79058823529413,1.4682352941177t-1.0164705882353,1.4682352941177q-3.2752941176471,5.0823529411765-7.3976470588236,9.9952941176472t-9.0917647058825,8.6400000000001q-0.90352941176472,0.67764705882354-2.0894117647059,1.4117647058824t-2.4282352941177,1.0729411764706t-2.484705882353,0.11294117647059t-2.1458823529412-1.4682352941177q-1.5811764705883-2.484705882353-1.7505882352941-5.7035294117648t0.50823529411765-6.1552941176472q1.4682352941177-6.2117647058824,3.444705882353-12.310588235294t4.9129411764707-11.858823529412q0.56470588235295-1.1294117647059,1.0729411764706-2.3717647058824t1.1858823529412-2.2023529411765t1.6941176470588-1.5811764705883t2.5976470588236-0.50823529411765q0.22588235294118,0,1.0164705882353,0.11294117647059t1.5811764705883,0.28235294117647t1.3552941176471,0.45176470588236t0.33882352941177,0.73411764705883z M137.45882352941,50.371764705883q2.8235294117647,1.6941176470588,3.1623529411765,3.7835294117648t-0.84705882352942,3.8400000000001t-3.3882352941177,3.0494117647059t-4.5741176470589,1.4117647058824q-0.67764705882354,0-1.6941176470588-0.16941176470588t-0.56470588235295-1.4117647058824q0.11294117647059-0.33882352941177,0.39529411764706-0.73411764705883t0.67764705882354-1.0729411764706t0.96000000000001-1.8070588235294t1.3552941176471-2.9364705882353q0.33882352941177-0.79058823529413,0.79058823529413-2.7105882352942t1.2423529411765-2.3717647058824q0.45176470588236-0.22588235294118,1.2988235294118,0.33882352941177z M155.30352941177,71.717647058825q-3.2752941176471,6.0988235294119-6.2117647058824,12.197647058824t-5.6470588235295,12.423529411765l4.404705882353-5.8729411764707q1.8070588235294-2.484705882353,3.7835294117648-5.2517647058824t4.1223529411765-5.4211764705883t4.5176470588236-5.0823529411765t4.969411764706-4.2352941176471q1.4682352941177-0.90352941176472,3.2752941176471-1.0729411764706t3.2752941176471,1.0729411764706q0.90352941176472,0.90352941176472,1.8070588235294,2.0329411764706t1.2423529411765,2.3717647058824q0.33882352941177,1.4682352941177-0.56470588235295,3.2188235294118t-1.4682352941177,2.88q-3.1623529411765,6.0988235294119-6.6635294117648,12.084705882353t-5.7600000000001,12.536470588235q-0.45176470588236,1.1294117647059-0.90352941176472,2.6541176470589t0.11294117647059,2.7670588235295q0.33882352941177,0.90352941176472,1.6941176470588,0.33882352941177t1.8070588235294-0.90352941176472q2.7105882352942-1.5811764705883,5.0258823529413-3.9529411764706t4.2352941176471-4.8564705882354t3.5576470588236-5.0258823529413t3.3317647058824-5.1388235294118q0.33882352941177-0.67764705882354,0.73411764705883-1.5811764705883t0.96000000000001-1.4682352941177q0.45176470588236-0.45176470588236,1.0729411764706-0.56470588235295t1.0729411764706,0.11294117647059t0.67764705882354,0.67764705882354t-0.11294117647059,1.2423529411765q-0.90352941176472,1.92-2.3717647058824,3.9529411764706t-2.5976470588236,3.7270588235295q-1.92,2.8235294117647-4.0094117647059,5.4776470588236t-4.5741176470589,5.0258823529413q-1.8070588235294,1.92-4.0094117647059,3.7835294117648t-4.8000000000001,2.4282352941177q-2.0329411764706,0.45176470588236-3.1623529411765-0.28235294117647t-1.5811764705883-2.0329411764706t-0.39529411764706-2.9364705882353t0.28235294117647-2.9929411764706q1.0164705882353-4.7435294117648,2.5976470588236-9.374117647059t3.1623529411765-9.0352941176472q0.79058823529413-2.2588235294118,1.6941176470588-4.2917647058824t1.8070588235294-4.2917647058824q0.33882352941177-0.67764705882354,0.73411764705883-1.6376470588236l0.79058823529413-1.92t0.67764705882354-1.8070588235294t0.28235294117647-1.4117647058824q-0.67764705882354-0.33882352941177-2.2023529411765,0.79058823529413t-3.5011764705883,3.1623529411765t-4.0658823529412,4.5741176470589t-3.9529411764706,4.8000000000001t-3.2188235294118,4.0658823529412l-1.6941176470588,2.2588235294118q-2.3717647058824,3.2752941176471-4.5741176470589,6.5505882352942t-4.3482352941177,6.6635294117648l-1.1294117647059,2.2588235294118t-1.2423529411765,3.0494117647059q-0.11294117647059,0.45176470588236-0.16941176470588,1.1294117647059t-0.28235294117647,1.2423529411765t-0.62117647058824,0.96000000000001t-1.0729411764706,0.28235294117647q-1.0164705882353-0.22588235294118-1.1858823529412-1.0729411764706t-0.16941176470588-1.6376470588236q-0.22588235294118-3.7270588235295,0.39529411764706-7.4541176470589t1.6941176470588-7.4541176470589t2.484705882353-7.3411764705883t2.7670588235295-6.889411764706q0.45176470588236-1.0164705882353,1.1294117647059-2.8235294117647t1.524705882353-3.6141176470589t1.6941176470588-3.2752941176471t1.6376470588236-1.8070588235294q0.33882352941177-0.11294117647059,1.6376470588236-0.28235294117647t2.6541176470589-0.11294117647059t2.3152941176471,0.39529411764706t0.62117647058824,1.0164705882353z"></path></svg>
<!--?xml version="1.0"?-->
<svg width="137.08244897959px" height="21.428571428571px" id="s1494876534739"><path fill="#008489" d="M0.82285714285711,13.965714285714l0-8.2514285714283l0.84571428571425,0l0,0.41142857142856s0.8685714285714-0.52571428571427,1.7142857142857-0.52571428571427c1.4399999999999,0,2.0685714285714,0.87999999999997,2.0685714285714,2.902857142857c0,2.2399999999999-0.73142857142854,3.0399999999999-2.4914285714285,3.0399999999999c-0.53714285714284,0-1.12-0.091428571428568-1.28-0.12571428571428l0,2.5485714285713l-0.85714285714283,0z M3.2571428571427,6.365714285714c-0.77714285714283,0-1.5771428571428,0.45714285714284-1.5771428571428,0.45714285714284l0,3.8514285714284c0.14857142857142,0.022857142857142,0.74285714285712,0.12571428571428,1.2342857142857,0.12571428571428c1.2571428571428,0,1.6685714285714-0.65142857142855,1.6685714285714-2.2971428571428c0-1.5657142857142-0.49142857142855-2.1371428571428-1.3257142857142-2.1371428571428z M12.244897959183,7.4399999999997l0,2.9257142857142c0.022857142857142,0.33142857142856,0.29714285714285,0.45714285714284,0.66285714285712,0.50285714285712l-0.034285714285713,0.67428571428569c-0.60571428571426,0-1.0171428571428-0.11428571428571-1.3599999999999-0.45714285714284c0,0-1.0285714285714,0.45714285714284-2.0571428571428,0.45714285714284c-1.04,0-1.6114285714285-0.59428571428569-1.6114285714285-1.7485714285714c0-1.0971428571428,0.57142857142855-1.5771428571428,1.7485714285714-1.6914285714285l1.7942857142856-0.17142857142856l0-0.49142857142855c0-0.79999999999997-0.34285714285713-1.0857142857142-1.0285714285714-1.0857142857142c-0.79999999999997,0-2.1599999999999,0.14857142857142-2.1599999999999,0.14857142857142l-0.034285714285713-0.65142857142855s1.2571428571428-0.25142857142856,2.2399999999999-0.25142857142856c1.2914285714285,0,1.8399999999999,0.59428571428569,1.8399999999999,1.8399999999999z M11.38775510204,8.5828571428568l-1.6914285714285,0.15999999999999c-0.69714285714283,0.068571428571426-0.97142857142854,0.39999999999998-0.97142857142854,1.0285714285714c0,0.66285714285712,0.28571428571427,1.0514285714285,0.8685714285714,1.0514285714285c0.84571428571425,0,1.7942857142856-0.3542857142857,1.7942857142856-0.3542857142857l0-1.8857142857142z M14.764081632652,5.7142857142855l0.85714285714283,0l1.4285714285714,4.9714285714284l0.37714285714284,0l1.4399999999999-4.9714285714284l0.85714285714283,0l-2.3771428571428,8.2514285714283l-0.85714285714283,0l0.74285714285712-2.5371428571428l-0.84571428571425,0z M23.043265306121,11.428571428571l-0.85714285714283,0l0-5.7142857142855l0.84571428571425,0l0,0.39999999999998s0.85714285714283-0.5142857142857,1.6685714285714-0.5142857142857c0.76571428571426,0,1.1885714285714,0.17142857142856,1.4857142857142,0.58285714285712c0,0,1.0171428571428-0.58285714285712,2.0342857142856-0.58285714285712c1.5542857142857,0,1.9314285714285,0.74285714285712,1.9314285714285,2.8114285714285l0,3.0171428571427l-0.85714285714283,0l0-2.9942857142856c0-1.5085714285714-0.17142857142856-2.0685714285714-1.2-2.0685714285714c-0.84571428571425,0-1.6114285714285,0.42285714285713-1.6114285714285,0.42285714285713c0.10285714285714,0.26285714285713,0.14857142857142,0.98285714285711,0.14857142857142,1.6685714285714l0,2.9714285714285l-0.85714285714283,0l0-2.9485714285713c0-1.5771428571428-0.15999999999999-2.1142857142856-1.2-2.1142857142856c-0.81142857142854,0-1.5314285714285,0.42285714285713-1.5314285714285,0.42285714285713l0,4.6399999999998z M35.219591836733,10.788571428571c0.85714285714283,0,2.1028571428571-0.10285714285714,2.1028571428571-0.10285714285714l0.022857142857142,0.67428571428569s-1.3028571428571,0.18285714285714-2.2285714285713,0.18285714285714c-1.7028571428571,0-2.2628571428571-0.99428571428568-2.2628571428571-2.9371428571427c0-2.1714285714285,0.93714285714282-3.0057142857142,2.3885714285713-3.0057142857142c1.5199999999999,0,2.2971428571428,0.79999999999997,2.2971428571428,2.6742857142856l-0.045714285714284,0.65142857142855l-3.7714285714284,0c0,1.2228571428571,0.37714285714284,1.8628571428571,1.4971428571428,1.8628571428571z M33.711020408162,8.2399999999997l2.9714285714285,0c0-1.4171428571428-0.4342857142857-1.9199999999999-1.4399999999999-1.9199999999999c-0.97142857142854,0-1.5199999999999,0.53714285714284-1.5314285714285,1.9199999999999z M41.098775510202,11.428571428571l-0.85714285714283,0l0-5.7142857142855l0.84571428571425,0l0,0.39999999999998s0.92571428571425-0.5142857142857,1.7714285714285-0.5142857142857c1.5771428571428,0,1.9314285714285,0.77714285714283,1.9314285714285,2.8114285714285l0,3.0171428571427l-0.84571428571425,0l0-2.9942857142856c0-1.5085714285714-0.17142857142856-2.0685714285714-1.2342857142857-2.0685714285714c-0.82285714285711,0-1.6114285714285,0.42285714285713-1.6114285714285,0.42285714285713l0,4.6399999999998z M50.703673469386,6.4571428571426l-1.8171428571428,0l0,2.7314285714285c0,1.2457142857142,0.079999999999997,1.5999999999999,0.82285714285711,1.5999999999999c0.31999999999999,0,1.0171428571428-0.068571428571426,1.0171428571428-0.068571428571426l0.057142857142855,0.7085714285714s-0.76571428571426,0.12571428571428-1.1657142857142,0.12571428571428c-1.1771428571428,0-1.5771428571428-0.44571428571427-1.5771428571428-2.0914285714285l0-3.0057142857142l-0.81142857142854,0l0-0.74285714285712l0.81142857142854,0l0-1.7485714285714l0.84571428571425,0l0,1.7485714285714l1.8171428571428,0l0,0.74285714285712z M56.937142857141,5.8171428571426l-0.022857142857142,0.73142857142854s-1.2685714285714-0.18285714285714-1.9999999999999-0.18285714285714c-0.7085714285714,0-1.2457142857142,0.19428571428571-1.2457142857142,0.8685714285714c0,0.53714285714284,0.2742857142857,0.68571428571426,1.4857142857142,0.89142857142854c1.4285714285714,0.23999999999999,1.9657142857142,0.52571428571427,1.9657142857142,1.6342857142857c0,1.3371428571428-0.84571428571425,1.7828571428571-2.2171428571428,1.7828571428571c-0.73142857142854,0-2.0114285714285-0.21714285714285-2.0114285714285-0.21714285714285l0.045714285714284-0.74285714285712s1.3028571428571,0.19428571428571,1.8857142857142,0.19428571428571c0.93714285714282,0,1.4399999999999-0.20571428571428,1.4399999999999-0.98285714285711c0-0.59428571428569-0.29714285714285-0.74285714285712-1.5428571428571-0.93714285714282c-1.2914285714285-0.20571428571428-1.9085714285714-0.44571428571427-1.9085714285714-1.5885714285714c0-1.2571428571428,1.0171428571428-1.6685714285714,2.0571428571428-1.6685714285714c0.85714285714283,0,2.0685714285714,0.21714285714285,2.0685714285714,0.21714285714285z  M64.535510204079,11.428571428571l-0.85714285714283,0l0-5.7142857142855l0.84571428571425,0l0,0.39999999999998s0.85714285714283-0.5142857142857,1.6685714285714-0.5142857142857c0.76571428571426,0,1.1885714285714,0.17142857142856,1.4857142857142,0.58285714285712c0,0,1.0171428571428-0.58285714285712,2.0342857142856-0.58285714285712c1.5542857142857,0,1.9314285714285,0.74285714285712,1.9314285714285,2.8114285714285l0,3.0171428571427l-0.85714285714283,0l0-2.9942857142856c0-1.5085714285714-0.17142857142856-2.0685714285714-1.2-2.0685714285714c-0.84571428571425,0-1.6114285714285,0.42285714285713-1.6114285714285,0.42285714285713c0.10285714285714,0.26285714285713,0.14857142857142,0.98285714285711,0.14857142857142,1.6685714285714l0,2.9714285714285l-0.85714285714283,0l0-2.9485714285713c0-1.5771428571428-0.15999999999999-2.1142857142856-1.2-2.1142857142856c-0.81142857142854,0-1.5314285714285,0.42285714285713-1.5314285714285,0.42285714285713l0,4.6399999999998z M78.631836734691,7.4399999999997l0,2.9257142857142c0.022857142857142,0.33142857142856,0.29714285714285,0.45714285714284,0.66285714285712,0.50285714285712l-0.034285714285713,0.67428571428569c-0.60571428571426,0-1.0171428571428-0.11428571428571-1.3599999999999-0.45714285714284c0,0-1.0285714285714,0.45714285714284-2.0571428571428,0.45714285714284c-1.04,0-1.6114285714285-0.59428571428569-1.6114285714285-1.7485714285714c0-1.0971428571428,0.57142857142855-1.5771428571428,1.7485714285714-1.6914285714285l1.7942857142856-0.17142857142856l0-0.49142857142855c0-0.79999999999997-0.34285714285713-1.0857142857142-1.0285714285714-1.0857142857142c-0.79999999999997,0-2.1599999999999,0.14857142857142-2.1599999999999,0.14857142857142l-0.034285714285713-0.65142857142855s1.2571428571428-0.25142857142856,2.2399999999999-0.25142857142856c1.2914285714285,0,1.8399999999999,0.59428571428569,1.8399999999999,1.8399999999999z M77.774693877548,8.5828571428568l-1.6914285714285,0.15999999999999c-0.69714285714283,0.068571428571426-0.97142857142854,0.39999999999998-0.97142857142854,1.0285714285714c0,0.66285714285712,0.28571428571427,1.0514285714285,0.8685714285714,1.0514285714285c0.84571428571425,0,1.7942857142856-0.3542857142857,1.7942857142856-0.3542857142857l0-1.8857142857142z M86.076734693874,3.222857142857l0,8.205714285714l-0.84571428571425,0l0-0.38857142857141s-0.87999999999997,0.50285714285712-1.7371428571428,0.50285714285712c-1.12,0-2.0571428571428-0.45714285714284-2.0571428571428-2.9257142857142c0-2.0114285714285,0.65142857142855-3.0171428571427,2.3885714285713-3.0171428571427c0.49142857142855,0,1.2342857142857,0.11428571428571,1.4057142857142,0.14857142857142l0-2.5257142857142l0.84571428571425,0z M83.596734693874,10.777142857142c0.81142857142854,0,1.6342857142857-0.42285714285713,1.6342857142857-0.42285714285713l0-3.8742857142856c-0.18285714285714-0.034285714285713-0.89142857142854-0.13714285714285-1.3599999999999-0.13714285714285c-1.2,0-1.5542857142857,0.7885714285714-1.5542857142857,2.2742857142856c0,1.8514285714285,0.60571428571426,2.1599999999999,1.28,2.1599999999999z M91.213061224486,10.788571428571c0.85714285714283,0,2.1028571428571-0.10285714285714,2.1028571428571-0.10285714285714l0.022857142857142,0.67428571428569s-1.3028571428571,0.18285714285714-2.2285714285713,0.18285714285714c-1.7028571428571,0-2.2628571428571-0.99428571428568-2.2628571428571-2.9371428571427c0-2.1714285714285,0.93714285714282-3.0057142857142,2.3885714285713-3.0057142857142c1.5199999999999,0,2.2971428571428,0.79999999999997,2.2971428571428,2.6742857142856l-0.045714285714284,0.65142857142855l-3.7714285714284,0c0,1.2228571428571,0.37714285714284,1.8628571428571,1.4971428571428,1.8628571428571z M89.704489795915,8.2399999999997l2.9714285714285,0c0-1.4171428571428-0.4342857142857-1.9199999999999-1.4399999999999-1.9199999999999c-0.97142857142854,0-1.5199999999999,0.53714285714284-1.5314285714285,1.9199999999999z  M102.22857142857,10.788571428571c0.85714285714283,0,2.1028571428571-0.10285714285714,2.1028571428571-0.10285714285714l0.022857142857142,0.67428571428569s-1.3028571428571,0.18285714285714-2.2285714285713,0.18285714285714c-1.7028571428571,0-2.2628571428571-0.99428571428568-2.2628571428571-2.9371428571427c0-2.1714285714285,0.93714285714282-3.0057142857142,2.3885714285713-3.0057142857142c1.5199999999999,0,2.2971428571428,0.79999999999997,2.2971428571428,2.6742857142856l-0.045714285714284,0.65142857142855l-3.7714285714284,0c0,1.2228571428571,0.37714285714284,1.8628571428571,1.4971428571428,1.8628571428571z M100.72,8.2399999999997l2.9714285714285,0c0-1.4171428571428-0.4342857142857-1.9199999999999-1.4399999999999-1.9199999999999c-0.97142857142854,0-1.5199999999999,0.53714285714284-1.5314285714285,1.9199999999999z M111.28489795918,7.4399999999997l0,2.9257142857142c0.022857142857142,0.33142857142856,0.29714285714285,0.45714285714284,0.66285714285712,0.50285714285712l-0.034285714285713,0.67428571428569c-0.60571428571426,0-1.0171428571428-0.11428571428571-1.3599999999999-0.45714285714284c0,0-1.0285714285714,0.45714285714284-2.0571428571428,0.45714285714284c-1.04,0-1.6114285714285-0.59428571428569-1.6114285714285-1.7485714285714c0-1.0971428571428,0.57142857142855-1.5771428571428,1.7485714285714-1.6914285714285l1.7942857142856-0.17142857142856l0-0.49142857142855c0-0.79999999999997-0.34285714285713-1.0857142857142-1.0285714285714-1.0857142857142c-0.79999999999997,0-2.1599999999999,0.14857142857142-2.1599999999999,0.14857142857142l-0.034285714285713-0.65142857142855s1.2571428571428-0.25142857142856,2.2399999999999-0.25142857142856c1.2914285714285,0,1.8399999999999,0.59428571428569,1.8399999999999,1.8399999999999z M110.42775510204,8.5828571428568l-1.6914285714285,0.15999999999999c-0.69714285714283,0.068571428571426-0.97142857142854,0.39999999999998-0.97142857142854,1.0285714285714c0,0.66285714285712,0.28571428571427,1.0514285714285,0.8685714285714,1.0514285714285c0.84571428571425,0,1.7942857142856-0.3542857142857,1.7942857142856-0.3542857142857l0-1.8857142857142z M118.15836734693,5.8171428571426l-0.022857142857142,0.73142857142854s-1.2685714285714-0.18285714285714-1.9999999999999-0.18285714285714c-0.7085714285714,0-1.2457142857142,0.19428571428571-1.2457142857142,0.8685714285714c0,0.53714285714284,0.2742857142857,0.68571428571426,1.4857142857142,0.89142857142854c1.4285714285714,0.23999999999999,1.9657142857142,0.52571428571427,1.9657142857142,1.6342857142857c0,1.3371428571428-0.84571428571425,1.7828571428571-2.2171428571428,1.7828571428571c-0.73142857142854,0-2.0114285714285-0.21714285714285-2.0114285714285-0.21714285714285l0.045714285714284-0.74285714285712s1.3028571428571,0.19428571428571,1.8857142857142,0.19428571428571c0.93714285714282,0,1.4399999999999-0.20571428571428,1.4399999999999-0.98285714285711c0-0.59428571428569-0.29714285714285-0.74285714285712-1.5428571428571-0.93714285714282c-1.2914285714285-0.20571428571428-1.9085714285714-0.44571428571427-1.9085714285714-1.5885714285714c0-1.2571428571428,1.0171428571428-1.6685714285714,2.0571428571428-1.6685714285714c0.85714285714283,0,2.0685714285714,0.21714285714285,2.0685714285714,0.21714285714285z M120.48326530612,5.7142857142855l0.85714285714283,0l1.4285714285714,4.9714285714284l0.37714285714284,0l1.4399999999999-4.9714285714284l0.85714285714283,0l-2.3771428571428,8.2514285714283l-0.85714285714283,0l0.74285714285712-2.5371428571428l-0.84571428571425,0z"></path></svg>
</defs><use id="SvgjsUse1103" xlink:href="#t1494876534739" fill="#008489" x="78.00470542907715" y="61.431800842285156"></use><use id="SvgjsUse1104" xlink:href="#s1494876534739" fill="#008489" y="186.0065701007843" x="116.86693954467773"></use><use id="SvgjsUse1105" xlink:href="#a1494876534739" fill="#008489" x="134.5" y="38.83801507949829"></use></svg>